<?xml version="1.0" encoding="utf-8"?>
<svg xmlns="http://www.w3.org/2000/svg" width="716px" height="716px" version="1.1" viewBox="176 700 716 716">
  <g fill="#0A0B0D" style="" transform="matrix(0.815234, 0, 0, 0.776626, 83.837655, 266.973484)">
    <path d="m176 699.55c-0.11953 0-0.23415 0.04746-0.31867 0.13202-0.08452 0.08454-0.13199 0.19914-0.13199 0.31864l0.00101 716c0 0.2489 0.20176 0.4507 0.45065 0.4507l716 1e-3c0.1195 0 0.2341-0.0477 0.31864-0.1321 0.08456-0.0845 0.13202-0.1991 0.13202-0.3186l-9.6e-4 -716c0-0.2489-0.2018-0.4507-0.4507-0.4507l-716-9.6e-4z"/>
  </g>
  <g>
    <g fill="#a70b1b">
      <path d="m753.39 1056.9 2.4e-4 2e-3c1.5019 8.9608-2.1335 16.332-5.6827 21.064l2.5e-4 0.0024c-19.127 25.5-100.46 50.124-186.64 64.563l2.6e-4 0.0024c-86.178 14.438-171.1 17.677-197.49-0.1967l2.4e-4 0.0024c-4.8996-3.3198-10.74-9.1025-12.241-18.064v2e-3c-1.5018-8.9646 2.1344-16.335 5.6835-21.067l2.5e-4 0.0019c19.128-25.504 100.47-50.127 186.64-64.568l2.6e-4 0.0019c86.176-14.442 171.1-17.679 197.49 0.1923l2.6e-4 0.0024c4.8979 3.3163 10.738 9.0972 12.239 18.06l2.4e-4 2e-3m-36.047 6.0398 2.3e-4 0.0019c0.755 4.5048 3.5468 6.3188 3.3139 6.1605l2.4e-4 2e-3c-11.618-7.8689-79.036-9.8193-170.96 5.5855l2e-4 0.0019c-91.923 15.4-155.02 39.223-163.44 50.446l4.9e-4 0.0014c-0.16943 0.2246 1.8795-2.4002 1.1236-6.9085l4.9e-4 0.0024c-0.75531-4.5067-3.5468-6.3215-3.3138-6.1628l2.5e-4 0.0019c11.618 7.8656 79.037 9.814 170.96-5.5907l2.4e-4 0.0015c91.922-15.404 155.02-39.224 163.44-50.449l2.7e-4 0.0014c0.1689-0.2265-1.8789 2.397-1.1231 6.9047z"/>
    </g>
    <g fill="#ff001a">
      <path d="m423.63 1094.9-1.5037-17.716q0.2807-54.285 36.119-92.288 36.126-38.023 92.577-40.517 54.284 0.27744 92.287 36.116 12.196 11.601 21.162 26.106l7.9786 15.103q7.084 15.765 9.8726 33.654 7.0149 55.137-23.876 97.182-30.892 42.048-85.602 51.835-55.134 7.0127-97.182-23.88-42.046-30.887-51.832-85.597z"/>
    </g>
    <g fill="#0f3b52" fill-opacity=".99608">
      <path d="m666.22 862.22 0.00633 0.00784-0.00633-0.00784 0.00633 0.00784-0.00633-0.00784 0.00633 0.00784-0.00633-0.00784"/>
    </g>
    <g fill="#fff">
      <path d="m535.81 1055.8 35.979 13.635-29.794 24.342-6.1853-37.976zm29.942-24.665c-7.4866 1.0048-14.953 2.2177-22.401 3.4345-14.852 2.411-29.767 4.8451-44.236 8.8889-6.106 1.7094-10.515 7.2117-10.937 13.772-0.6051 9.3352 0.97174 19.163 2.4787 28.427 1.5104 9.2688 3.108 19.09 6.6491 27.758 2.479 6.0809 8.4069 9.904 14.742 9.5839 7.4768-0.375 14.931-1.1656 22.361-2.1698 7.4908-0.9986 14.955-2.2178 22.404-3.4325 14.851-2.4102 29.766-4.8432 44.233-8.8942 6.1072-1.7109 10.518-7.2118 10.943-13.767 0.60235-9.3373-0.98682-19.162-2.4938-28.428-1.5127-9.2641-3.1012-19.095-6.6376-27.76-2.4789-6.079-8.4088-9.9026-14.74-9.5779-7.4756 0.3754-14.931 1.1659-22.366 2.1644z"/>
    </g>
    <g fill="#f00">
      <path d="m535.76 1055.4c-0.05735 0.0078-0.11182 0.0346-0.16065 0.0693-0.09204 0.0796-0.13793 0.1977-0.1196 0.3174l6.1843 37.978c0.0159 0.0904 0.0625 0.1675 0.1345 0.2163l0.00125 0.0064c0.07128 0.0513 0.16088 0.0732 0.25465 0.0576 0.0615-0.0098 0.1172-0.0352 0.1611-0.0747l-0.0029 0.0019 29.797-24.342c0.09377-0.0771 0.1365-0.1992 0.1189-0.3183-0.02-0.1202-0.10106-0.2188-0.21556-0.2647l-35.978-13.63c-0.05371-0.0206-0.11573-0.0269-0.17432-0.0166z"/>
    </g>
    <g fill="#a70b1b">
      <path d="m703.5 1028.2 0.1709 3.0796q1.1159 16.876-9.3479 24.294 2.1113 5.1635 0.65807 8.3279l10.514 1.0591q-2.737 1.8413-30.566 12.523-16.239 5.6224-52.638 15.142-51.685 12.315-96.804 18.398-34.879 4.2328-65.167 6.1204-23.164 1.0158-41.563 0.514l-19.117-1.2076q-2.5473-0.5131-4.0922-2.1137-7.1216-8.8705-9.015-32.003-13.414 5.6928-27.888 18.205-5.8492 6.5189-8.0058 16.957 1.355 20.183 19.024 28.749 9.8225 5.7265 53.587 8.0042 11.434 0.4337 35.753-0.0422 40.216-2.9403 55.869-4.7904 73.105-10.049 119.6-21.968 46.01-11.497 76.274-24.937 24.23-10.768 38.51-25.886 11.036-23.047-7.3617-38.563-5.6245-4.6302-38.4-9.8617z"/>
    </g>
    <g fill="#ffce54">
      <path d="m270.45 1060.4c0.81803-3.5973 1.8955-8.1758 3.1448-12.936 4.6954-17.96 7.6547-23.513 9.0081-25.226 2.0241-2.5762 4.6881-4.466 7.7034-5.4734l1.0432-0.34936 10.536-13.536 16.304 14.857-9.8804 12.002-0.103 1.1244c-0.2681 3.1678-1.4862 6.1999-3.5094 8.7824-1.3542 1.7066-6.0539 5.8934-22.408 14.661-4.3404 2.3248-8.5438 4.4569-11.839 6.0933z"/>
    </g>
    <g fill="#f6bb42">
      <path d="m301.44 997.58-12.279 15.767c-3.5424 1.1838-6.8519 3.4299-9.4082 6.6755-6.531 8.2914-14.45 46.939-14.45 46.939s35.711-16.748 42.252-25.047c2.5466-3.2396 3.959-6.9878 4.2783-10.715l11.354-13.794-21.748-19.826zm4.7882 29.003-1.4351 1.7494-0.19444 2.2514c-0.2125 2.458-1.166 4.8256-2.7523 6.84-0.52273 0.662-4.0127 4.4537-21.244 13.697-1.646 0.8777-3.2631 1.7299-4.821 2.5325 0.42025-1.7041 0.86483-3.4742 1.3387-5.2709 4.9464-18.923 7.8095-23.204 8.3422-23.868 1.5858-2.02 3.6653-3.4962 5.9998-4.2723l2.0858-0.69947 1.3509-1.7332 7.4427-9.5713 10.849 9.8838-6.9618 8.4613z"/>
    </g>
    <g fill="#ff000a">
      <path d="m358.74 1007.2c1.7373-1.4291 3.4601-2.9145 5.1605-4.4435l32.845-38.945c1.251-1.9532 2.472-3.9376 3.6676-5.9378 0.682-1.1645 1.3641-2.3293 2.0234-3.4989 4.5172 18.342 1.2394 40.506-10.623 60.509-3.9561 6.661-8.5704 12.598-13.651 17.742-0.0348 0.0369-0.23706 0.2368-0.23706 0.2368-1.1479 1.0637-2.9043 1.2969-4.3178 0.4587-0.4685-0.2827-0.84918-0.6523-1.1331-1.0756 0 0-0.21759-0.3348-0.28975-0.4864l-13.901-24.191c0.1567-0.1212 0.30098-0.2458 0.45674-0.3678z"/>
      <path d="m343.14 907.88c-1.0393 0.856-2.0682 1.7285-3.0979 2.6067-1.764 1.5173-3.5077 3.0619-5.2108 4.6321-7.3186 0.4652-32.706 39.076-32.706 39.076-1.2076 1.9385-2.3725 3.8868-3.4855 5.849-0.09905 0.16992-0.18683 0.33863-0.28545 0.50806l-26.23-9.5195c-0.15698-0.045-0.52978-0.20163-0.52978-0.20163-0.46552-0.20637-0.891-0.51717-1.2543-0.93573-1.0702-1.2472-1.138-3.0119-0.28769-4.3318 0 0 0.1565-0.22804 0.19165-0.2687 4.1842-5.8929 9.2313-11.462 15.115-16.507 17.663-15.146 38.929-22.199 57.781-20.908z"/>
    </g>
    <g fill="#71cfeb">
      <path d="m425.19 923.16-74.58 92.427-57.022-46.009 74.58-92.428z"/>
    </g>
    <g fill="#a5b3bc">
      <path d="m337.46 912.72 59.594 48.086q-24.043 29.796-48.086 59.593-29.797-24.042-59.594-48.085 24.043-29.797 48.086-59.594"/>
      <path d="m368.86 874.12 29.1 23.48 29.099 23.481q-16.142 20.004-32.284 40.009-29.1-23.48-58.2-46.96 16.142-20.005 32.284-40.01"/>
    </g>
    <g fill="#fff">
      <path d="m422.15 909.32v2.4e-4 1e-4 -3.4e-4"/>
      <path d="m350.61 1015.6-57.022-46.009 74.58-92.428 57.022 46.011-74.58 92.427zm-40.521-17.2c2.0506-2.5412 5.7543-2.9561 8.2722-0.92431 2.5189 2.0322 2.8954 5.7396 0.84497 8.2804-2.0496 2.5403-5.7556 2.9596-8.2746 0.9271-2.5148-2.0352-2.8923-5.7432-0.8425-8.2832m33.403 33.849 0.00775 0.0068 89.378-110.77 7.9e-4 -8.7e-4 0.01804-0.0222-0.0019-1e-3c2.0288-2.539 1.6284-6.2416-0.90502-8.2859-0.01808-0.01463-0.034-0.02443-0.05048-0.03796l0.00153-0.00157-10.331-8.3355-45.111-36.4c-2.5312-2.0397-6.233-1.647-8.2861 0.869l-8e-4 -1e-4 -89.396 110.79 0.00653 0.00563c-0.04022 0.0466-0.08361 0.08995-0.12408 0.1396-1.9997 2.4782-1.5383 6.169 1.0322 8.243 0.0378 0.0303 0.079 0.05506 0.11756 0.0847l-0.00486 0.00613 55.382 44.688 3.5e-4 -8e-4c2.5006 2.0179 6.1564 1.6505 8.1566-0.8281 0.04059-0.0483 0.0733-0.1013 0.1098-0.1506"/>
    </g>
    <g>
      <path d="m318.36 997.46c2.5189 2.0322 2.8954 5.7396 0.84497 8.2804-2.0496 2.5403-5.7556 2.9596-8.2746 0.9271-2.5148-2.0352-2.8923-5.7432-0.8425-8.2832 2.0506-2.5412 5.7543-2.9561 8.2722-0.92431z"/>
    </g>
    <g fill="#e3edf2" fill-opacity=".99608">
      <path d="m364.72 872.79h-4.2e-4 2.4e-4l1.8e-4 5e-4 -4.2e-4 -5e-4h4.2e-4l-1.8e-4 5e-4q1.8e-4 -5e-4 1.8e-4 -5e-4"/>
      <path d="m323.08 987.53v8.7e-4l-2.4e-4 -6e-4 2.4e-4 -2.7e-4"/>
    </g>
    <g fill="#fff" fill-opacity=".99608">
      <path d="m320.73 924.32v8.3e-4l-6e-5 -7e-4 6e-5 -1.3e-4"/>
    </g>
    <g fill="#bfcdd6" fill-opacity=".99608">
      <path d="m315.71 972.94-1.3e-4 4.6e-4 1.3e-4 -4.6e-4v7.6e-4l-1.3e-4 -3e-4 1.3e-4 -4.6e-4v7.6e-4q0-7.6e-4 0-7.6e-4"/>
    </g>
    <g>
      <path d="m338.44 958.64 0.27032-0.98745q0.7619-3.0277 1.9696-5.4725 0.8256-1.6019 2.0968-2.6211 1.321-1.0243 3.2902-1.2769 2.5903-0.2483 4.7797 0.38206 2.6648 0.6925 4.7468 2.2786 2.0069 1.6213 2.9991 3.4148 0.98123 1.592 1.0983 3.4083-0.01099 1.3018-1.0168 2.564 0.53194 1.7932 0.17055 2.9487-0.29389 0.99-1.4957 1.9974-1.3833 1.1754-4.6573 3.0444l-14.252-9.6804z"/>
    </g>
    <g fill="#fff">
      <path d="m333.9 965.93-1.0107 0.7832q-10.362-5.4314-15.712-4.0322-6.2283 0.7227-19.467 10.534l48.82 39.024q2.8969-5.4704 5.6546-13.841 1.7751-6.2399 0.41773-10.192-0.59839-2.3-2.2389-5.0416-1.9791-3.2465-6.5172-8.1759l0.19061-0.7334-10.137-8.3253z"/>
    </g>
    <g fill="#ffb092">
      <path d="m335.51 977.47-0.80799-0.35375q-2.29-6.0782-1.9964-7.937 0.02349-1.2629 1.3098-3.0178-0.32367-1.6068 0.04333-2.5171 0.27216-0.89113 1.8751-2.886-1.1603-0.34475-0.2605-1.9491 1.0437-1.8842 1.8636-2.627 1.0012-0.96936 1.5286 0.65466 3.7635-4.6658 5.1504-5.4307 1.3195-1.0522 3.0686-0.4387 0.83429 0.3724 1.5881 1.0146 0.45807 0.3788 0.91113 0.78506 1.2308 1.3498 2.321 2.2719l3.0172 2.292q1.294 1.1691 1.4593 1.8299 0.49041 1.2505-0.37476 2.9256-0.38351 1.0564-3.3709 4.7974 1.4314 0.7539 0.9805 1.7192-0.54898 1.0861-3.7567 2.9066-1.5596 0.80686-1.5575-0.20804-0.72864 1.0074-1.4934 1.582-0.97009 0.6854-2.8904 1.3389-0.62543 1.2895-2.0268 1.9494-1.8432 0.7753-6.5813 1.2978z"/>
    </g>
    <g>
      <path d="m341.17 975.32-6e-5 2.6e-4 6e-5 -2.6e-4v6.1e-4z"/>
      <path d="m331.03 983.7v6e-4l-3.7e-4 -3.7e-4 3.7e-4 -2.3e-4z"/>
    </g>
    <g fill-opacity=".18824">
      <path d="m312.18 973.04-4.3223 8.2858 1.047 0.83715q0.091-1.1112 0.6752-2.7202 0.61139-1.7348 2.6001-6.4027z"/>
      <path d="m342.28 998.31-0.36958 0.3814q-2.1662 2.252-3.4414 3.4178-1.0038 0.9386-2.3382 1.82l1.1436 0.91468 5.0056-6.5338z"/>
    </g>
    <g fill="#f00" fill-opacity=".18039">
      <path d="m343.84 974.32-8.8847 2.2068-0.84942-10.239q0.24182 2.2914 0.98477 4.8705 0.47326 1.1795 0.63213 1.4005 0.3368 0.54736 0.7735 0.93311 0.82093 0.7666 2.5443 1.0062 1.9691 0.18357 4.7994-0.1779z"/>
    </g>
    <g fill="#fff">
      <path d="m472.36 916.01-2.267-2.8545-2.2672-2.8546q1.405 0.4844 2.81 0.9688 0.92743-1.1475 1.8546-2.2948l-0.13038 7.0351"/>
      <path d="m469.07 914.46-0.40917 0.14147-0.40943 0.14173q1.2541-1.7537 2.5081-3.5075 1.9892 0.63796 3.9786 1.2759l-5.6682 1.9484"/>
      <path d="m383.98 1289 2.3946-1.567 2.3945-1.5673q-1.1666 0.0137-2.3333 0.0276-0.40747-1.084-0.81502-2.1681l-1.6407 5.2748"/>
      <path d="m386.82 1288.6 0.26996 0.2069 0.27008 0.2065q-0.50128-1.6168-1.0026-3.2334-1.64-0.0162-3.28-0.0322l3.7426 2.8522"/>
      <path d="m576.21 872.61 1.5388 1.9375 1.5387 1.9375q-0.95364-0.32876-1.9072-0.6575-0.6294 0.7788-1.2586 1.5575l0.08835-4.775"/>
      <path d="m578.44 873.66 0.2778-0.09604 0.27773-0.0962q-0.85119 1.1907-1.7023 2.381-1.3502-0.4331-2.7005-0.86606l3.8472-1.3227"/>
      <path d="m574.26 866.82-4.0625 1.1279-4.0626 1.1283q1.6438 0.50267 3.2876 1.0055 0.08694 1.704 0.17377 3.4081l4.6638-6.6698"/>
      <path d="m570.12 866.04-0.28663-0.4109-0.28637-0.41065q-0.02 2.4934-0.0399 4.987 2.2949 0.7566 4.5898 1.5128l-3.9769-5.6782"/>
      <path d="m605.9 1080.1-1.9072 2.1335-1.9076 2.1337q1.1235-0.3153 2.2469-0.6309 0.67416 0.9419 1.3483 1.8835l0.2196-5.5198"/>
      <path d="m603.25 1081.2-0.3142-0.1299-0.31445-0.1297q0.9027 1.4319 1.8054 2.8638 1.5882-0.409 3.1764-0.8182l-4.3532-1.786"/>
      <path d="m593.06 1074-1.9006 3.7632-1.9008 3.7639q1.4783-0.877 2.9567-1.7542 1.3185 1.083 2.6372 2.1659l-1.7925-7.9388"/>
      <path d="m589.7 1076.5-0.49671-0.0649-0.49682-0.0647q1.8306 1.6936 3.6611 3.3873 2.1044-1.1878 4.2086-2.3758l-6.8761-0.8819"/>
    </g>
    <g fill="#c3bfd3">
      <path d="m748.08 917.94 2.8101-3.1434 2.81-3.1433q-1.6549 0.4645-3.3099 0.92896-0.9933-1.3872-1.9867-2.7747l-0.3235 8.1324"/>
      <path d="m751.98 916.37 0.46315 0.191 0.46315 0.1912q-1.3298-2.1095-2.6597-4.2193-2.3401 0.60276-4.6798 1.2053l6.4132 2.6317"/>
    </g>
    <g fill="#fff">
      <path d="m356.56 1327.3-1.9007 3.7635-1.9008 3.7637q1.4783-0.8772 2.9567-1.7541 1.3185 1.0831 2.6372 2.1659l-1.7924-7.939"/>
      <path d="m353.19 1329.8-0.99353-0.1296q1.8306 1.6935 3.6611 3.3871 2.1042-1.1876 4.2086-2.3754l-6.8762-0.8821"/>
      <path d="m354.25 1310.9-4.2099 0.2359-4.2096 0.2357q1.4987 0.8414 2.9976 1.6834-0.27874 1.6833-0.55737 3.3668l5.9793-5.5218"/>
      <path d="m350.38 1309.2-0.19232-0.4625-0.19232-0.4629q-0.55126 2.4322-1.1027 4.8644 2.0807 1.2284 4.1615 2.4569l-2.6742-6.3959"/>
    </g>
    <g fill="#c3bfd3">
      <path d="m391.96 1294.3-0.49682-0.0646-0.4967-0.065q1.8306 1.6936 3.6611 3.3871 2.1044-1.1878 4.2086-2.3755l-6.8761-0.882"/>
      <path d="m444.94 884.99-2.8618 0.026-2.8618 0.0259q0.98933 0.6184 1.9789 1.2368-0.24243 1.1325-0.485 2.265l4.2296-3.5537"/>
      <path d="m442.37 883.75-0.11573-0.3197-0.1156-0.31985q-0.45105 1.6314-0.90227 3.2628 1.3716 0.89929 2.7435 1.7981l-1.6099-4.4214"/>
      <path d="m691.9 877.82 2.4685 0.1664 2.4688 0.16687q-0.88515 0.48363-1.7702 0.96743 0.1521 0.98984 0.3042 1.9795l-3.4713-3.2802"/>
      <path d="m694.18 876.88 0.1159-0.2699 0.11594-0.2701q0.30713 1.4306 0.61436 2.8617-1.2291 0.70666-2.4584 1.4137l1.6122-3.7354"/>
      <path d="m699.29 896.84-7.2743-0.491q1.3042-0.71264 2.6081-1.4256-0.2242-1.458-0.44834-2.9162l5.1145 4.8328"/>
      <path d="m695.93 898.23-0.1709 0.3981-0.17064 0.3977q-0.45265-2.1079-0.9054-4.216 1.8113-1.0414 3.6221-2.0829l-2.3751 5.503"/>
      <path d="m384.14 1316.8 0.0081 0.0044-0.0125 0.0013q-9.8e-4 -0.0036-0.0019-0.0057z"/>
      <path d="m385.51 1310.8 0.00488 0.0044-0.01263 0.0013q0.00391-0.0035 0.00775-0.0057z"/>
      <path d="m696.21 893.93 0.00644 0.0061-0.0172 0.00144q0.0055-0.00439 0.01076-0.00754z"/>
      <path d="m698.29 892.74-0.00281 0.00644-0.01721 0.00125q0.00576-0.00439 0.01136-0.00769z"/>
      <path d="m693.98 879.8 0.00645 0.00596-0.01721 0.00137q0.00536-0.00427 0.01076-0.00733z"/>
      <path d="m383.42 1308.8 2.4688 0.1669 2.4686 0.166q-0.88513 0.4841-1.7703 0.9681 0.15223 0.9895 0.30443 1.9792l-3.4715-3.2802"/>
      <path d="m385.71 1307.9 0.11597-0.2699 0.1159-0.2703q0.30718 1.4307 0.6145 2.8613-1.2293 0.7072-2.4584 1.4138l1.612-3.7349"/>
      <path d="m388.34 1319.1-4.8552 0.9562q0.72967-0.6966 1.4594-1.3929-0.40313-0.9163-0.80627-1.8332l4.2021 2.2699"/>
      <path d="m386.37 1320.6-0.04212 0.291-0.04199 0.2909q-0.66705-1.3025-1.3341-2.6051 1.0043-1.0008 2.0088-2.0017l-0.59056 4.0249"/>
      <path d="m537.79 839.85-8.1254 2.256q1.6439 0.50306 3.2879 1.0058 0.08694 1.7041 0.17358 3.4082l4.664-6.67"/>
      <path d="m533.66 839.06-0.2865-0.41113-0.28646-0.41077q-0.02 2.4937-0.03983 4.9874 2.2948 0.75647 4.5897 1.5129l-3.9769-5.6785"/>
      <path d="m395.32 1291.8-1.9008 3.7634-1.9009 3.764q1.4784-0.8773 2.9569-1.7544 1.3186 1.0832 2.637 2.166l-1.7922-7.939"/>
      <path d="m350.04 1064.4-2.6026 2.9113-2.6027 2.9113q1.5328-0.4304 3.0657-0.861 0.91997 1.2854 1.8399 2.5702l0.29975-7.5318"/>
      <path d="m346.42 1065.9-0.4289-0.1768-0.42882-0.1772q1.2316 1.9538 2.4633 3.9076 2.1672-0.5584 4.3344-1.1165l-5.94-2.4371"/>
      <path d="m440.03 877.48 2.7709 0.7157 2.771 0.71555q-0.79565-0.85325-1.5914-1.7066 0.52734-1.0314 1.0545-2.0625l-5.005 2.3379"/>
      <path d="m442.2 879.34 0.02895 0.33885 0.02893 0.33876q0.85802-1.4589 1.7161-2.9182-1.0923-1.2234-2.1845-2.4469l0.41057 4.6875"/>
      <path d="m404.34 1326.7-8.4198 0.4714q1.4988 0.8415 2.9976 1.6832-0.27857 1.6836-0.55719 3.3668l5.9794-5.5214"/>
      <path d="m400.47 1325-0.19228-0.4624-0.19238-0.4628q-0.55134 2.4321-1.1026 4.8642 2.0807 1.2284 4.1616 2.4572l-2.6743-6.3962"/>
      <path d="m401.14 1315.4 2.5547 1.2906 2.5545 1.2896q-0.59528-1.0031-1.1907-2.0066 0.73505-0.8949 1.4702-1.7899l-5.3887 1.2163"/>
      <path d="m402.85 1317.7-0.04395 0.3372-0.04401 0.3372q1.1495-1.2422 2.299-2.4847-0.80609-1.4286-1.6124-2.8566l-0.59862 4.6669"/>
    </g>
    <g>
      <path d="m586.22 831.78v1.4e-4 -1.4e-4 1.4e-4q0-1.4e-4 0-1.4e-4"/>
    </g>
    <g fill="#fff">
      <path d="m718.6 1213.2 2.3945-1.5671 2.3946-1.5671q-1.1668 0.0135-2.3335 0.0274-0.40745-1.084-0.815-2.1681l-1.6407 5.2749"/>
      <path d="m721.44 1212.8 0.27 0.2069 0.27 0.2066q-0.50135-1.617-1.0027-3.2335-1.64-0.0163-3.28-0.0323l3.7427 2.8523"/>
      <path d="m691.18 1251.5-1.9006 3.7636-1.9009 3.7637q1.4783-0.8772 2.9568-1.7542 1.3185 1.0832 2.6371 2.1659l-1.7924-7.939"/>
      <path d="m687.82 1254-0.49684-0.0648-0.4967-0.0648q1.8305 1.6935 3.6611 3.3871 2.1043-1.1877 4.2086-2.3754l-6.8761-0.8821"/>
      <path d="m688.87 1235.1-4.2099 0.2359-4.2096 0.2357q1.4988 0.8414 2.9976 1.6833-0.2788 1.6834-0.55746 3.3668l5.9794-5.5217"/>
      <path d="m685 1233.4-0.19235-0.4626-0.19225-0.4629q-0.55135 2.4323-1.1027 4.8644 2.0807 1.2284 4.1615 2.4571l-2.6742-6.396"/>
    </g>
    <g fill="#c3bfd3">
      <path d="m726.58 1218.5-0.49684-0.0646-0.4967-0.0649q1.8305 1.6936 3.6611 3.3871 2.1044-1.1879 4.2085-2.3755l-6.8761-0.8821"/>
      <path d="m718.77 1241 0.00814 0.0044-0.01254 0.0013q-9.6e-4 -0.0036-0.00189-0.0057z"/>
      <path d="m720.13 1235 0.00486 0.0044-0.0127 0.0014q0.00393-0.0036 0.00784-0.0058z"/>
      <path d="m718.05 1233 2.4687 0.1668 2.4686 0.1661q-0.88513 0.484-1.7703 0.968 0.15217 0.9895 0.30437 1.9792l-3.4714-3.2801"/>
      <path d="m720.33 1232.1 0.116-0.2699 0.1159-0.2703q0.3072 1.4307 0.6145 2.8614-1.2293 0.7071-2.4584 1.4138l1.612-3.735"/>
      <path d="m722.96 1243.3-2.4277 0.478-2.4275 0.4782q0.72968-0.6967 1.4594-1.393-0.40316-0.9163-0.8063-1.8331l4.2021 2.2699"/>
      <path d="m721 1244.8-0.0421 0.2911-0.042 0.2909q-0.66705-1.3025-1.3341-2.6051 1.0043-1.0009 2.0088-2.0016l-0.5906 4.0247"/>
      <path d="m729.94 1216-1.9008 3.7633-1.9009 3.7641q1.4784-0.8774 2.9568-1.7544 1.3186 1.0831 2.637 2.166l-1.7922-7.939"/>
      <path d="m691.1 1181.1 2.3946-1.5671 2.3946-1.5671q-1.1667 0.0137-2.3334 0.0275-0.4076-1.0841-0.81505-2.1681l-1.6408 5.2748"/>
      <path d="m693.94 1180.7 0.26995 0.2064 0.26997 0.2069q-0.50122-1.617-1.0025-3.2335-1.64-0.0159-3.28-0.0321l3.7426 2.8523"/>
      <path d="m738.96 1250.9-8.4198 0.4715q1.4988 0.8415 2.9975 1.6831-0.27854 1.6836-0.55714 3.3668l5.9794-5.5214"/>
      <path d="m735.09 1249.2-0.19225-0.4624-0.19235-0.4627q-0.55136 2.4321-1.1026 4.8641 2.0807 1.2284 4.1615 2.4572l-2.6743-6.3962"/>
      <path d="m735.76 1239.6 2.5546 1.2904 2.5546 1.2897q-0.59536-1.0032-1.1907-2.0065 0.73505-0.8949 1.4702-1.7899l-5.3887 1.2163"/>
      <path d="m737.48 1241.9-0.04394 0.3373-0.04395 0.3371q1.1494-1.2422 2.299-2.4846-0.8061-1.4286-1.6124-2.8566l-0.5987 4.6668"/>
    </g>
  </g>
</svg>